<svg xmlns="http://www.w3.org/2000/svg" viewBox="0 0 190 46" width="190" height="46" role="img" aria-label="LinkedIn"><rect x="1" y="1" width="188" height="44" rx="10" fill="#0d1526" stroke="#58a6ff" stroke-opacity=".5"/><g transform="translate(18,13)" fill="#58a6ff"><path d="M3.6 20h4V7.6h-4zM5.6 5.8A2.3 2.3 0 1 0 5.6 1.2a2.3 2.3 0 0 0 0 4.6zM10.2 20h4v-6.8c0-1.8.3-3.5 2.5-3.5s2.2 2 2.2 3.6V20h4v-7.5c0-3.5-.8-6.2-4.8-6.2-2 0-3.3 1-3.8 2h-.1V7.6h-4z"/></g><text x="54" y="28.0" font-family="ui-monospace, SFMono-Regular, Menlo, Consolas, 'DejaVu Sans Mono', monospace" font-size="14" fill="#f0f6fc" font-weight="700">LinkedIn</text></svg>